<?xml version="1.0" encoding="utf-8"?>
<!-- Generator: Adobe Illustrator 16.0.0, SVG Export Plug-In . SVG Version: 6.00 Build 0)  -->
<!DOCTYPE svg PUBLIC "-//W3C//DTD SVG 1.1//EN" "http://www.w3.org/Graphics/SVG/1.1/DTD/svg11.dtd">
<svg version="1.1" id="Layer_1" xmlns="http://www.w3.org/2000/svg" xmlns:xlink="http://www.w3.org/1999/xlink" x="0px" y="0px"
	 width="841.89px" height="595.28px" viewBox="0 0 841.89 595.28" enable-background="new 0 0 841.89 595.28" xml:space="preserve">
<g>
	<path fill="#3E3E3E" d="M680.644,354.961l14.492-36.646h41.842l-19.856-55.59l24.835-62.804l71.132,188.866H760.63l-12.154-33.826
		H680.644z"/>
	<path fill="#1779BE" d="M635.892,388.787l76.149-188.865h-50.485l-52.091,122.049l-37.04-122.049h-38.806l-39.772,122.049
		l-28.049-55.615l-25.383,78.2l25.77,44.23h49.684l35.941-109.451l34.267,109.451H635.892z"/>
	<path fill="#3E3E3E" d="M359.379,323.954h31.096c9.42,0,17.807-1.053,25.163-3.156l8.042-24.774l22.476-69.243
		c-1.714-2.715-3.669-5.281-5.866-7.699c-11.54-12.773-28.423-19.16-50.651-19.16h-78.18v188.866h47.921V323.954z M400.539,243.372
		c4.507,4.536,6.761,10.607,6.761,18.213c0,7.663-1.982,13.741-5.946,18.233c-4.346,4.993-12.348,7.488-24.005,7.488h-17.97v-50.74
		h18.103C388.346,236.567,396.031,238.835,400.539,243.372z"/>
	<path fill="#1779BE" d="M120.742,325.178l-64.017,49.666l-27.925-13.686V231.027l27.815-14.019l63.575,49.999l100.661-100.771
		l66.225,26.489v206.183l-65.893,26.709L120.742,325.178z M218.975,342.613V249.35l-60.374,46.688l60.264,46.576H218.975z
		 M58.933,325.84l31.677-28.699l-31.677-31.678v60.265V325.84z"/>
</g>
</svg>
