<?xml version="1.0" encoding="utf-8"?>
<!-- Generator: Adobe Illustrator 16.0.0, SVG Export Plug-In . SVG Version: 6.00 Build 0)  -->
<!DOCTYPE svg PUBLIC "-//W3C//DTD SVG 1.1//EN" "http://www.w3.org/Graphics/SVG/1.1/DTD/svg11.dtd">
<svg version="1.1" id="Layer_1" xmlns="http://www.w3.org/2000/svg" xmlns:xlink="http://www.w3.org/1999/xlink" x="0px" y="0px"
	 width="841.89px" height="200.28px" viewBox="0 0 841.89 200.28" enable-background="new 0 0 841.89 200.28" xml:space="preserve">
<g>
	<path fill="#3E3E3E" d="M601.816,142.758l10.727-26.361h30.964l-14.694-39.988l18.378-45.178l52.641,135.859h-38.82l-8.995-24.332
		H601.816z"/>
	<path fill="#1779BE" d="M568.699,167.09l56.353-135.858h-37.36l-38.55,87.796L521.73,31.232h-28.718l-29.432,87.795l-20.758-40.007
		l-18.785,56.253l19.07,31.816h36.769l26.598-78.732l25.358,78.732H568.699z"/>
	<path fill="#3E3E3E" d="M364.068,120.453h23.012c6.971,0,13.178-0.758,18.622-2.27l5.952-17.823l16.633-49.809
		c-1.269-1.953-2.715-3.799-4.341-5.538c-8.54-9.188-21.035-13.783-37.485-13.783h-57.856V167.09h35.464V120.453z M394.528,62.487
		c3.335,3.263,5.003,7.631,5.003,13.102c0,5.512-1.467,9.884-4.4,13.116c-3.216,3.592-9.138,5.387-17.765,5.387h-13.298v-36.5
		h13.396C385.505,57.591,391.192,59.224,394.528,62.487z"/>
	<path fill="#1779BE" d="M187.467,121.334l-47.375,35.727l-20.666-9.844v-93.61l20.584-10.084l47.048,35.967L261.552,7
		l49.009,19.055v148.316l-48.763,19.213L187.467,121.334z M260.163,133.877v-67.09l-44.679,33.583l44.598,33.506H260.163z
		 M141.726,121.809l23.442-20.643l-23.442-22.788v43.351V121.809z"/>
</g>
</svg>
